/* XPM */
static char * e15_xpm[] = {
"20 20 3 1",
" 	c None",
".	c None",
"+	c #000000",
"....................",
"....................",
"....................",
"....................",
"....................",
"....+++.............",
"...+...+......+.....",
"...++..+..+.+..+....",
"...++++..++.+.++....",
"....++++..++.+.+....",
"...+.++++.+..++++...",
"...+...++...........",
"...+...+............",
"....+++.............",
"....................",
"....................",
"....................",
"....................",
"....................",
"...................."};
